<svg xmlns="http://www.w3.org/2000/svg" width="17" height="17" viewBox="0 0 34 34">
  <defs>
    <style>
      .cls-1 {
        fill: #aaa;
        fill-rule: evenodd;
      }
    </style>
  </defs>
  <path id="insta" class="cls-1" d="M26.058,8.3A1.648,1.648,0,0,1,24.4,9.939H22.83A1.648,1.648,0,0,1,21.174,8.3V6.741A1.648,1.648,0,0,1,22.83,5.1H24.4a1.648,1.648,0,0,1,1.655,1.64V8.3h0Zm0.291,16.185a1.747,1.747,0,0,1-1.765,1.641H6.68a1.807,1.807,0,0,1-1.829-1.641v-9.7a1.815,1.815,0,0,1,1.829-1.65h2a1.023,1.023,0,0,1,.184.017,0.693,0.693,0,0,1,.6.636,0.769,0.769,0,0,1-.006.166c-0.005.038,0.087,0.079,0.082,0.117a6.266,6.266,0,0,0,.041.712v0a6.509,6.509,0,0,0,6.41,6.551c-0.04,0-.125.006-0.165,0.006,0.04,0,.058-0.005.1-0.006s0.069,0.006.11,0.006a6.585,6.585,0,0,0,6.615-6.557,6.1,6.1,0,0,0-.051-0.713c0-.039,0-0.08-0.009-0.117a0.834,0.834,0,0,1-.007-0.166,0.692,0.692,0,0,1,.6-0.636,1.022,1.022,0,0,1,.184-0.017h1.227a1.755,1.755,0,0,1,1.765,1.65v9.7h0Zm-13.642-9.7s0.262-3.279,3.311-3.279,3.31,3.279,3.31,3.279a3.143,3.143,0,0,1-3.31,3.279A3.144,3.144,0,0,1,12.706,14.785ZM25.849,2.079H5.3a3.3,3.3,0,0,0-3.31,3.278V25.726A3.3,3.3,0,0,0,5.3,29H25.849a3.294,3.294,0,0,0,3.309-3.279V5.357a3.293,3.293,0,0,0-3.309-3.278" transform="translate(1.422 1.453)"/>
</svg>
