<svg xmlns="http://www.w3.org/2000/svg" width="17" height="17" viewBox="0 0 34 34">
  <defs>
    <style>
      .cls-1 {
        fill: #aaa;
        fill-rule: evenodd;
      }
    </style>
  </defs>
  <path id="linkedIn" class="cls-1" d="M9.111,5.674A2.656,2.656,0,0,1,6.26,8.356H6.227A2.637,2.637,0,0,1,3.443,5.674,2.658,2.658,0,0,1,6.292,2.989,2.647,2.647,0,0,1,9.111,5.674ZM3.992,30H8.6V12.346H3.992V30Zm19.58-17.811a6.1,6.1,0,0,0-5.3,2.436v0.053H18.238a0.309,0.309,0,0,0,.036-0.053V12.347H13.361c0.07,1.545,0,17.655,0,17.655h4.913V19.571a3.8,3.8,0,0,1,.175-1.337,3.711,3.711,0,0,1,3.025-2.41c1.941,0,2.634,1.515,2.634,3.733V30H29V18.925C29,13.855,27.1,12.189,23.573,12.189Z" transform="translate(0.781 0.5)"/>
</svg>
