<svg xmlns="http://www.w3.org/2000/svg" width="17" height="17" viewBox="0 0 34 34">
  <defs>
    <style>
      .cls-1 {
        fill: #aaa;
        fill-rule: evenodd;
      }
    </style>
  </defs>
  <path id="twitter" class="cls-1" d="M30.449,6.858a11.9,11.9,0,0,1-3.414.935,5.955,5.955,0,0,0,2.614-3.286,11.919,11.919,0,0,1-3.774,1.441,5.949,5.949,0,0,0-10.13,5.418A16.875,16.875,0,0,1,3.493,5.16a5.943,5.943,0,0,0,1.839,7.931,5.927,5.927,0,0,1-2.692-.743v0.074a5.945,5.945,0,0,0,4.767,5.825,5.956,5.956,0,0,1-2.684.1,5.95,5.95,0,0,0,5.553,4.125,11.932,11.932,0,0,1-7.383,2.543,12.124,12.124,0,0,1-1.418-.083A16.834,16.834,0,0,0,10.587,27.6C21.52,27.6,27.5,18.552,27.5,10.7q0-.386-0.016-0.769A12.087,12.087,0,0,0,30.449,6.858Z" transform="translate(1.047 1.172)"/>
</svg>
